Coordinates
version=1
nRows=14
nColumns=40
inDegrees=yes

Units are S.I. units (second, meters, Newtons, ...)
Angles are in degrees.

endheader
time	pelvis_tilt	pelvis_list	pelvis_rotation	pelvis_tx	pelvis_ty	pelvis_tz	hip_flexion_r	hip_adduction_r	hip_rotation_r	knee_angle_r	knee_angle_r_beta	ankle_angle_r	subtalar_angle_r	mtp_angle_r	hip_flexion_l	hip_adduction_l	hip_rotation_l	knee_angle_l	knee_angle_l_beta	ankle_angle_l	subtalar_angle_l	mtp_angle_l	lumbar_extension	lumbar_bending	lumbar_rotation	arm_flex_r	arm_add_r	arm_rot_r	elbow_flex_r	pro_sup_r	wrist_flex_r	wrist_dev_r	arm_flex_l	arm_add_l	arm_rot_l	elbow_flex_l	pro_sup_l	wrist_flex_l	wrist_dev_l
      2.15000000	     -2.25685725	     -4.16633272	      3.95703389	      1.01262093	      0.93448869	      0.51053751	      9.09883596	      2.02749084	    -17.91091765	     14.49047782	     14.49047782	      9.82803544	      3.55897631	     -6.15192556	     29.48073281	    -13.56128695	      1.80432805	     59.94821309	     59.94821309	      7.90638808	    -15.46891471	      6.20198831	     -9.25808903	      5.70124169	      3.58945038	     22.51226032	    -18.77972166	     -1.76944561	     54.47437760	     44.95186996	      0.00000000	      0.00000000	      5.31844206	     -8.88527749	     -2.42540173	     33.09257365	     44.59047007	      0.00000000	      0.00000000
      2.16321429	     -2.40537046	     -4.10137935	      4.20416405	      1.01145201	      0.93488659	      0.51093118	      8.52616679	      2.09357284	    -18.24809143	     13.70268157	     13.70268157	      9.83275836	      4.03927232	     -6.15750312	     30.39871059	    -13.57234031	      1.39951236	     57.68507328	     57.68507328	      7.99288715	    -16.03141591	      6.45781279	     -9.24435690	      5.75445932	      3.69744641	     24.31772769	    -18.95403065	     -2.02748302	     55.58452718	     44.93839935	      0.00000000	      0.00000000	      3.86850278	     -8.57937940	     -2.27921164	     32.23239444	     44.56503340	      0.00000000	      0.00000000
      2.17642857	     -2.51958548	     -4.08532565	      4.46474057	      1.01038863	      0.93522228	      0.51129736	      7.90015580	      2.21146248	    -18.69544303	     12.88911889	     12.88911889	      9.78732290	      4.67360035	     -6.26329140	     31.10470741	    -13.54897361	      1.07337514	     55.14950657	     55.14950657	      8.08778312	    -16.59517136	      6.66965612	     -9.26636136	      5.83869542	      3.69334540	     26.12980469	    -19.08524350	     -2.29626574	     57.05366121	     44.91525947	      0.00000000	      0.00000000	      2.37293702	     -8.30048144	     -2.10542477	     31.36620479	     44.54162845	      0.00000000	      0.00000000
      2.18964286	     -2.68677551	     -4.02504928	      4.67091506	      1.00922022	      0.93542427	      0.51162033	      7.42783030	      2.26754653	    -18.96134317	     12.22988583	     12.22988583	      9.77108769	      5.10887180	     -6.33967828	     31.70894975	    -13.48861329	      0.61978078	     52.38849858	     52.38849858	      8.12383659	    -16.86331729	      7.08439946	     -9.29140569	      5.85790997	      3.90600691	     27.80512239	    -19.36669994	     -2.57225801	     58.29666309	     44.89710694	      0.00000000	      0.00000000	      0.98458896	     -7.97422652	     -1.96113745	     30.68983520	     44.51546646	      0.00000000	      0.00000000
      2.20285714	     -2.79127454	     -4.02844823	      4.90227683	      1.00819726	      0.93557577	      0.51181228	      6.86330808	      2.39772841	    -19.31476825	     11.52955626	     11.52955626	      9.76145131	      5.59907277	     -6.45472213	     32.10852791	    -13.40825428	      0.28833896	     49.43946234	     49.43946234	      8.21561073	    -17.04143337	      7.60195481	     -9.34645072	      5.95112471	      4.02102387	     29.39900914	    -19.51293425	     -2.85555878	     59.66507771	     44.87494756	      0.00000000	      0.00000000	     -0.36708456	     -7.70814182	     -1.79744487	     30.03817482	     44.48741616	      0.00000000	      0.00000000
      2.21607143	     -2.92598610	     -4.03133459	      5.09783894	      1.00719166	      0.93556053	      0.51181019	      6.35279074	      2.50958509	    -19.62584395	     10.85820049	     10.85820049	      9.74539549	      6.12508415	     -6.62119591	     32.40254150	    -13.26276222	      0.00527978	     46.36318505	     46.36318505	      8.39021796	    -17.02523048	      8.15974340	     -9.37932190	      6.07504506	      4.17795184	     30.95243385	    -19.70607346	     -3.19763452	     61.06615827	     44.85498222	      0.00000000	      0.00000000	     -1.69164606	     -7.38067952	     -1.59253462	     29.47590098	     44.45451132	      0.00000000	      0.00000000
      2.22928571	     -3.12494011	     -4.05246283	      5.24768282	      1.00616363	      0.93531328	      0.51170955	      6.01900522	      2.60683665	    -19.82119482	     10.37938652	     10.37938652	      9.78026845	      6.44545562	     -6.75071336	     32.65043027	    -13.11501953	     -0.29372986	     43.18027582	     43.18027582	      8.56335011	    -16.75355968	      8.70493471	     -9.32750924	      6.19679148	      4.45822627	     32.41709503	    -19.97507142	     -3.52228089	     62.13771883	     44.84260778	      0.00000000	      0.00000000	     -2.88284893	     -7.04186678	     -1.42588463	     29.04464267	     44.42150873	      0.00000000	      0.00000000
      2.24250000	     -3.19777686	     -4.10838341	      5.42172247	      1.00530513	      0.93516880	      0.51142409	      5.47814587	      2.76242924	    -20.11432440	      9.77712559	      9.77712559	      9.78316067	      6.92899852	     -6.94816458	     32.64980141	    -12.92356486	     -0.41333228	     39.92412211	     39.92412211	      8.73880509	    -16.39941524	      9.26687830	     -9.40860446	      6.35425736	      4.52692296	     33.76398932	    -19.96004682	     -3.92681008	     63.50146421	     44.82553547	      0.00000000	      0.00000000	     -4.09973430	     -6.76459211	     -1.14666363	     28.66904328	     44.37594135	      0.00000000	      0.00000000
      2.25571429	     -3.37214668	     -4.16188285	      5.53962421	      1.00440205	      0.93475740	      0.51100303	      5.14955888	      2.87044835	    -20.27900753	      9.36569980	      9.36569980	      9.85964896	      7.21433905	     -7.12025498	     32.68077361	    -12.72856351	     -0.58876461	     36.70629190	     36.70629190	      8.91901356	    -15.73273624	      9.75371743	     -9.36924569	      6.50401067	      4.75419953	     35.03391419	    -20.07282346	     -4.29763318	     64.51213402	     44.81675298	      0.00000000	      0.00000000	     -5.19357363	     -6.44978417	     -0.90380142	     28.39327911	     44.33188890	      0.00000000	      0.00000000
      2.26892857	     -3.47008694	     -4.26397277	      5.67415523	      1.00362653	      0.93432524	      0.51040720	      4.68359784	      3.03464838	    -20.62320665	      8.84211936	      8.84211936	      9.73289631	      7.74649330	     -7.86549916	     32.57798443	    -12.54957905	     -0.67260125	     33.59216977	     33.59216977	      9.06736584	    -14.90736564	     10.04343341	     -9.44236769	      6.71322521	      5.13980406	     35.76829664	    -20.04468253	     -5.76061495	     66.50359434	     44.86184010	      0.00000000	      0.00000000	     -6.41925199	     -6.44428334	      1.12070576	     28.94987861	     44.10742118	      0.00000000	      0.00000000
      2.28214286	     -3.61495986	     -4.35343120	      5.75333045	      1.00287305	      0.93381122	      0.50971424	      4.38014510	      3.15946013	    -20.65113590	      8.55444085	      8.55444085	      9.88007754	      7.83029758	     -7.90888049	     32.47115831	    -12.37119909	     -0.83577794	     30.66786542	     30.66786542	      9.24866223	    -13.88102682	     10.49321450	     -9.39368314	      6.88308788	      5.27325204	     36.94188796	    -20.05963513	     -5.91365440	     67.13030065	     44.85696848	      0.00000000	      0.00000000	     -7.36787882	     -6.15217820	      1.38447989	     28.60112591	     44.06540218	      0.00000000	      0.00000000
      2.29535714	     -3.70102208	     -4.45517141	      5.83502031	      1.00222933	      0.93334973	      0.50887473	      3.98602722	      3.29921352	    -20.70593048	      8.22542725	      8.22542725	     10.01316794	      8.01184408	     -7.95607213	     32.29488042	    -12.20616913	     -1.02008737	     28.04374487	     28.04374487	      9.41697029	    -12.72978056	     10.92702528	     -9.40847035	      7.06555002	      5.30058364	     38.03649938	    -19.89980219	     -6.14698931	     67.79206559	     44.85385905	      0.00000000	      0.00000000	     -8.29947764	     -5.87791259	      1.70140023	     28.33692142	     44.01566293	      0.00000000	      0.00000000
      2.30857143	     -3.75515926	     -4.56331412	      5.90307932	      1.00171425	      0.93289119	      0.50790112	      3.54381269	      3.43874453	    -20.77698162	      7.89371505	      7.89371505	     10.16183365	      8.23517953	     -8.00208371	     32.10848551	    -12.06015641	     -1.28805827	     25.82752823	     25.82752823	      9.56180492	    -11.52129636	     11.34819501	     -9.43613770	      7.23678044	      5.28692575	     39.01171176	    -19.63400422	     -6.47679190	     68.39624144	     44.85655534	      0.00000000	      0.00000000	     -9.21230900	     -5.64622355	      2.08527784	     28.15565796	     43.95741813	      0.00000000	      0.00000000
      2.32178571	     -3.79234396	     -4.72782545	      5.97079070	      1.00130012	      0.93239468	      0.50683515	      3.04998073	      3.64500578	    -20.91303365	      7.50294597	      7.50294597	     10.28794332	      8.59891616	     -7.98871869	     32.00632359	    -11.99925087	     -1.66960197	     24.17502770	     24.17502770	      9.75901221	    -10.19601518	     11.82680675	     -9.47226462	      7.47269399	      5.19376911	     39.92674462	    -19.10085072	     -7.21025643	     68.90467794	     44.88668382	      0.00000000	      0.00000000	    -10.13441189	     -5.51703241	      2.97118735	     28.25697393	     43.84552268	      0.00000000	      0.00000000
